
<svg id="visual" viewBox="0 0 960 80" width="960" height="80" xmlns="http://www.w3.org/2000/svg" xmlns:xlink="http://www.w3.org/1999/xlink" version="1.1"><rect x="0" y="0" width="960" height="80" fill="#f4b2cb"></rect><path d="M0 55L40 48C80 41 160 27 240 29.5C320 32 400 51 480 54.2C560 57.3 640 44.7 720 40C800 35.3 880 38.7 920 40.3L960 42L960 81L920 81C880 81 800 81 720 81C640 81 560 81 480 81C400 81 320 81 240 81C160 81 80 81 40 81L0 81Z" fill="#fff" stroke-linecap="round" stroke-linejoin="miter"></path></svg>