<svg id="visual" viewBox="0 0 960 80" width="960" height="80" xmlns="http://www.w3.org/2000/svg" xmlns:xlink="http://www.w3.org/1999/xlink" version="1.1"><rect x="0" y="0" width="960" height="80" fill="#b490fd"></rect><path d="M0 74L40 66.3C80 58.7 160 43.3 240 35C320 26.7 400 25.3 480 28.8C560 32.3 640 40.7 720 42.7C800 44.7 880 40.3 920 38.2L960 36L960 81L920 81C880 81 800 81 720 81C640 81 560 81 480 81C400 81 320 81 240 81C160 81 80 81 40 81L0 81Z" fill="#9fd3e8" stroke-linecap="round" stroke-linejoin="miter"></path></svg>