<svg id="visual" viewBox="0 0 960 300" width="960" height="300" xmlns="http://www.w3.org/2000/svg" xmlns:xlink="http://www.w3.org/1999/xlink" version="1.1"><rect x="0" y="0" width="960" height="300" fill="#b490fd"></rect><path d="M0 111L40 122.2C80 133.3 160 155.7 240 162.7C320 169.7 400 161.3 480 147C560 132.7 640 112.3 720 114.2C800 116 880 140 920 152L960 164L960 301L920 301C880 301 800 301 720 301C640 301 560 301 480 301C400 301 320 301 240 301C160 301 80 301 40 301L0 301Z" fill="#9fd3e8" stroke-linecap="round" stroke-linejoin="miter"></path></svg>