<svg id="visual" viewBox="0 0 960 150" width="960" height="150" xmlns="http://www.w3.org/2000/svg" xmlns:xlink="http://www.w3.org/1999/xlink" version="1.1"><rect x="0" y="0" width="960" height="150" fill="#b490fd"></rect><path d="M0 140L40 125.5C80 111 160 82 240 66.3C320 50.7 400 48.3 480 55C560 61.7 640 77.3 720 81C800 84.7 880 76.3 920 72.2L960 68L960 151L920 151C880 151 800 151 720 151C640 151 560 151 480 151C400 151 320 151 240 151C160 151 80 151 40 151L0 151Z" fill="#9fd3e8" stroke-linecap="round" stroke-linejoin="miter"></path></svg>