
<svg id="visual" viewBox="0 0 960 80" width="960" height="80" xmlns="http://www.w3.org/2000/svg" xmlns:xlink="http://www.w3.org/1999/xlink" version="1.1"><rect x="0" y="0" width="960" height="80" fill="#9fd3e8"></rect><path d="M0 14L40 22.8C80 31.7 160 49.3 240 56.7C320 64 400 61 480 53.3C560 45.7 640 33.3 720 26.7C800 20 880 19 920 18.5L960 18L960 81L920 81C880 81 800 81 720 81C640 81 560 81 480 81C400 81 320 81 240 81C160 81 80 81 40 81L0 81Z" fill="#f4b2cb" stroke-linecap="round" stroke-linejoin="miter"></path></svg>